<?xml version="1.0" encoding="utf-8"?>
<svg version="1.1" xmlns="http://www.w3.org/2000/svg" xmlns:xlink="http://www.w3.org/1999/xlink" width="496" height="48" viewBox="0 0 496 48">
<svg id="studio-icon-symbol6" width="16" height="16" viewBox="0 0 16 16" x="0" y="0">
<path fill="none" stroke="#fff" stroke-width="1.333" stroke-miterlimit="4" stroke-linecap="butt" stroke-linejoin="miter" d="M5.802 6.836l4.396-2.198"></path>
<path fill="none" stroke="#fff" stroke-width="1.333" stroke-miterlimit="4" stroke-linecap="butt" stroke-linejoin="miter" d="M5.802 9.099l4.396 2.198"></path>
<path fill="none" stroke="#fff" stroke-width="1.333" stroke-miterlimit="4" stroke-linecap="butt" stroke-linejoin="miter" d="M6.061 8c0 1.428-1.158 2.586-2.586 2.586s-2.586-1.158-2.586-2.586c0-1.428 1.158-2.586 2.586-2.586s2.586 1.158 2.586 2.586z"></path>
<path fill="none" stroke="#fff" stroke-width="1.333" stroke-miterlimit="4" stroke-linecap="butt" stroke-linejoin="miter" d="M15.111 3.475c0 1.428-1.158 2.586-2.586 2.586s-2.586-1.158-2.586-2.586c0-1.428 1.158-2.586 2.586-2.586s2.586 1.158 2.586 2.586z"></path>
<path fill="none" stroke="#fff" stroke-width="1.333" stroke-miterlimit="4" stroke-linecap="butt" stroke-linejoin="miter" d="M15.111 12.525c0 1.428-1.158 2.586-2.586 2.586s-2.586-1.158-2.586-2.586c0-1.428 1.158-2.586 2.586-2.586s2.586 1.158 2.586 2.586z"></path>
</svg>
<svg id="studio-icon-symbol5" width="16" height="16" viewBox="0 0 16 16" x="32" y="0">
<path fill="none" stroke="#fff" stroke-width="1.333" stroke-miterlimit="4" stroke-linecap="butt" stroke-linejoin="miter" d="M6.4 8.8h2.4v4.8h-2.4v-4.8z"></path>
<path fill="none" stroke="#fff" stroke-width="1.333" stroke-miterlimit="4" stroke-linecap="butt" stroke-linejoin="miter" d="M1.6 10.4h2.4v3.2h-2.4v-3.2z"></path>
<path fill="none" stroke="#fff" stroke-width="1.333" stroke-miterlimit="5" stroke-linecap="butt" stroke-linejoin="miter" d="M11.2 6.4h2.4v7.2h-2.4v-7.2z"></path>
<path fill="none" stroke="#fff" stroke-width="1.333" stroke-miterlimit="4" stroke-linecap="butt" stroke-linejoin="miter" d="M4 7.2l2.286-2.4 1.714 1.8 4-4.2"></path>
<path fill="none" stroke="#fff" stroke-width="1.333" stroke-miterlimit="4" stroke-linecap="butt" stroke-linejoin="miter" d="M9.6 2.4h2.4v2.4"></path>
</svg>
<svg id="studio-icon-symbol3" width="16" height="16" viewBox="0 0 16 16" x="64" y="0">
<path fill="none" stroke="#fff" stroke-width="1.333" stroke-miterlimit="4" stroke-linecap="butt" stroke-linejoin="miter" d="M14.73 11.095h-6.772l-3.386-3.095 3.386-3.095h6.772"></path>
<path fill="none" stroke="#fff" stroke-width="1.333" stroke-miterlimit="4" stroke-linecap="butt" stroke-linejoin="miter" d="M4.571 8h-4.063"></path>
<path fill="none" stroke="#fff" stroke-width="1.333" stroke-miterlimit="4" stroke-linecap="square" stroke-linejoin="miter" d="M12.698 3.048l2.032 1.857-2.032 1.857"></path>
<path fill="none" stroke="#fff" stroke-width="1.333" stroke-miterlimit="4" stroke-linecap="square" stroke-linejoin="miter" d="M12.698 9.238l2.032 1.857-2.032 1.857"></path>
</svg>
<svg id="studio-icon-symbol8" width="16" height="16" viewBox="0 0 16 16" x="96" y="0">
<path fill="none" stroke="#fff" stroke-width="1.6" stroke-miterlimit="4" stroke-linecap="butt" stroke-linejoin="miter" d="M5.951 1.588c0.038-0.75 0.47-0.908 0.974-0.343l2.718 3.048 3.723-1.21c0.713-0.232 0.961 0.091 0.55 0.726l-2.137 3.304 2.608 3.946c0.417 0.631 0.17 0.974-0.554 0.767l-4.46-1.278-2.581 3.53c-0.443 0.605-0.832 0.491-0.871-0.268l-0.24-4.716-3.671-1.417c-0.703-0.271-0.698-0.678 0.018-0.911l3.723-1.21 0.2-3.969z"></path>
</svg>
<svg id="studio-icon-symbol9" width="16" height="16" viewBox="0 0 16 16" x="128" y="0">
<path fill="none" stroke="#fff" stroke-width="1.333" stroke-miterlimit="4" stroke-linecap="butt" stroke-linejoin="miter" d="M1.778 8c0-3.556 2.8-6.465 6.222-6.465 2.427 0 4.542 1.422 5.538 3.556"></path>
<path fill="none" stroke="#fff" stroke-width="1.333" stroke-miterlimit="4" stroke-linecap="butt" stroke-linejoin="miter" d="M14.222 8c0 3.556-2.8 6.465-6.222 6.465-2.427 0-4.542-1.422-5.538-3.556"></path>
<path fill="none" stroke="#fff" stroke-width="1.333" stroke-miterlimit="4" stroke-linecap="square" stroke-linejoin="miter" d="M9.867 8c0 1.071-0.836 1.939-1.867 1.939s-1.867-0.868-1.867-1.939c0-1.071 0.836-1.939 1.867-1.939s1.867 0.868 1.867 1.939z"></path>
<path fill="none" stroke="#fff" stroke-width="1.333" stroke-miterlimit="4" stroke-linecap="square" stroke-linejoin="miter" d="M14.098 1.341l-0.498 3.814-3.733-0.517"></path>
<path fill="none" stroke="#fff" stroke-width="1.333" stroke-miterlimit="4" stroke-linecap="square" stroke-linejoin="miter" d="M1.902 14.659l0.498-3.814 3.733 0.517"></path>
</svg>
<svg id="studio-icon-symbol16" width="16" height="16" viewBox="0 0 16 16" x="160" y="0">
<path fill="none" stroke="#fff" stroke-width="1.3333" stroke-miterlimit="4" stroke-linecap="butt" stroke-linejoin="miter" d="M14.667 8h-10"></path>
<path fill="none" stroke="#fff" stroke-width="1.3333" stroke-miterlimit="4" stroke-linecap="square" stroke-linejoin="miter" d="M12 10.667l2.667-2.667-2.667-2.667"></path>
<path fill="none" stroke="#fff" stroke-width="1.3333" stroke-miterlimit="4" stroke-linecap="butt" stroke-linejoin="miter" d="M7.648 5.333c-0.732-0.818-1.797-1.333-2.981-1.333-2.209 0-4 1.791-4 4s1.791 4 4 4c1.185 0 2.249-0.515 2.981-1.333"></path>
</svg>
<svg id="studio-icon-symbol18" width="14" height="16" viewBox="0 0 14 16" x="192" y="0">
<path fill="none" stroke="#fff" stroke-width="1.333" stroke-miterlimit="4" stroke-linecap="butt" stroke-linejoin="miter" d="M0.667 2.667v10.667c0 1.133 2.667 2 6 2s6-0.867 6-2"></path>
<path fill="none" stroke="#fff" stroke-width="1.333" stroke-miterlimit="4" stroke-linecap="square" stroke-linejoin="miter" d="M12.667 2.667c0 1.105-2.686 2-6 2s-6-0.895-6-2c0-1.105 2.686-2 6-2s6 0.895 6 2z"></path>
<path fill="none" stroke="#fff" stroke-width="1.333" stroke-miterlimit="4" stroke-linecap="butt" stroke-linejoin="miter" d="M12.667 9.333h-8"></path>
<path fill="none" stroke="#fff" stroke-width="1.333" stroke-miterlimit="4" stroke-linecap="square" stroke-linejoin="miter" d="M10 12l2.667-2.667-2.667-2.667"></path>
</svg>
<svg id="studio-icon-symbol4" width="16" height="16" viewBox="0 0 16 16" x="224" y="0">
<path fill="none" stroke="#fff" stroke-width="1.333" stroke-miterlimit="4" stroke-linecap="butt" stroke-linejoin="miter" d="M8.038 10.025l1.925 2.887c0.321 0.513 0.192 1.219-0.321 1.604v0c-0.513 0.385-1.283 0.192-1.604-0.321l-2.566-4.17"></path>
<path fill="none" stroke="#fff" stroke-width="1.333" stroke-miterlimit="4" stroke-linecap="butt" stroke-linejoin="miter" d="M8.962 4.892h-5.133c-1.412 0-2.566 1.155-2.566 2.566s1.155 2.566 2.566 2.566h5.133l5.774 3.208v-11.549l-5.774 3.208z"></path>
</svg>
<svg id="studio-icon-symbol19" width="16" height="16" viewBox="0 0 16 16" x="256" y="0">
<path fill="#fff" d="M0.021 15.979h15.957v-4.787h-15.957v4.787zM12.791 12.787h1.596v1.596h-1.596v-1.596zM9.596 12.787h1.596v1.596h-1.596v-1.596zM1.617 12.787h4.787v1.596h-4.787v-1.596z"></path>
<path fill="#fff" d="M4.013 8.8h-0.8l1.596 1.596 1.596-1.596h-0.796c0-3.255-2.438-5.936-5.587-6.328v1.613c2.26 0.379 3.991 2.345 3.991 4.715v0z"></path>
<path fill="#fff" d="M9.596 6.404h-0.796v-6.383h-1.596v6.383h-0.8l1.596 1.596z"></path>
<path fill="#fff" d="M10.391 8.8h-0.796l1.596 1.596 1.596-1.596h-0.8c0-2.366 1.728-4.332 3.991-4.715v-1.617c-3.149 0.396-5.583 3.077-5.587 6.332v0z"></path>
</svg>
<svg id="studio-icon-microservice-process" width="16" height="16" viewBox="0 0 16 16" x="288" y="0">
<path fill="#fff" d="M14.745 6.745c-0.547 0-1.011 0.35-1.183 0.837h-2.711c-0.070-0.482-0.259-0.927-0.539-1.3l2.219-2.219c0.164 0.079 0.348 0.122 0.541 0.122 0.693 0 1.255-0.562 1.255-1.255s-0.562-1.255-1.255-1.255c-0.693 0-1.255 0.562-1.255 1.255 0 0.194 0.044 0.377 0.122 0.541l-2.219 2.219c-0.373-0.279-0.818-0.469-1.3-0.539v-2.711c0.487-0.172 0.837-0.638 0.837-1.183 0-0.693-0.562-1.255-1.255-1.255s-1.255 0.562-1.255 1.255c0 0.547 0.35 1.011 0.837 1.183v2.711c-0.482 0.070-0.927 0.259-1.3 0.539l-2.219-2.219c0.079-0.164 0.122-0.348 0.122-0.541 0-0.693-0.562-1.255-1.255-1.255s-1.255 0.562-1.255 1.255c0 0.693 0.562 1.255 1.255 1.255 0.194 0 0.377-0.044 0.541-0.122l2.219 2.219c-0.279 0.373-0.469 0.818-0.539 1.3h-2.711c-0.172-0.487-0.638-0.837-1.183-0.837-0.693 0-1.255 0.562-1.255 1.255s0.562 1.255 1.255 1.255c0.547 0 1.011-0.35 1.183-0.837h2.711c0.070 0.482 0.259 0.927 0.539 1.3l-2.219 2.219c-0.164-0.079-0.348-0.122-0.541-0.122-0.693 0-1.255 0.562-1.255 1.255s0.562 1.255 1.255 1.255c0.693 0 1.255-0.562 1.255-1.255 0-0.194-0.044-0.377-0.122-0.541l2.219-2.219c0.373 0.28 0.818 0.469 1.3 0.539v2.711c-0.487 0.172-0.837 0.638-0.837 1.183 0 0.693 0.562 1.255 1.255 1.255s1.255-0.562 1.255-1.255c0-0.547-0.35-1.011-0.837-1.183v-2.711c0.482-0.070 0.927-0.259 1.3-0.539l2.219 2.219c-0.079 0.164-0.122 0.348-0.122 0.541 0 0.693 0.562 1.255 1.255 1.255s1.255-0.562 1.255-1.255c0-0.693-0.562-1.255-1.255-1.255-0.194 0-0.377 0.044-0.541 0.122l-2.219-2.219c0.28-0.373 0.469-0.818 0.539-1.3h2.711c0.172 0.487 0.638 0.837 1.183 0.837 0.693 0 1.255-0.562 1.255-1.255s-0.562-1.255-1.255-1.255v0z"></path>
</svg>
<svg id="studio-icon-symbol1" width="16" height="16" viewBox="0 0 16 16" x="320" y="0">
<path fill="#fff" d="M8 14h-7c-0.552 0-1-0.448-1-1v0c0-0.552 0.448-1 1-1h7c0.552 0 1 0.448 1 1v0c0 0.552-0.448 1-1 1v0z"></path>
<path fill="#fff" d="M15 4.019h-7c-0.552 0-1-0.448-1-1v0c0-0.552 0.448-1 1-1h7c0.552 0 1 0.448 1 1v0c0 0.553-0.448 1-1 1v0z"></path>
<path fill="#fff" d="M15 9h-14c-0.552 0-1-0.448-1-1v0c0-0.552 0.448-1 1-1h14c0.552 0 1 0.448 1 1v0c0 0.552-0.448 1-1 1v0z"></path>
</svg>
<svg id="studio-icon-symbol12" width="16" height="16" viewBox="0 0 16 16" x="352" y="0">
<path fill="#fff" d="M14.322 9.699c-0.147 0.426 0.305 0.536 0.115 0.864-0.058 0.1-0.298 0.061-0.354 0.21-0.060 0.159 0.243 0.265 0.186 0.524-0.072 0.322-0.392 0.161-0.471 0.502-0.079 0.336 0.179 0.659 0.2 0.978 0.035 0.536-0.092 0.799-0.686 0.992-0.254 0.083-0.517 0.102-0.775 0.102-0.233 0-0.463-0.016-0.678-0.016-0.238 0-0.459 0.019-0.65 0.101-0.507 0.216-0.652 1.031-0.654 1.489l-6.932-1.632c0.517-1.894-0.721-2.843-1.131-3.587-0.593-1.078-1.637-2.173-1.641-5.146-0.003-2.082 1.716-4.127 4.502-4.687 0.826-0.166 1.571-0.239 2.244-0.239 2.799 0 4.34 1.258 5.203 2.291 0.695 0.831 1.367 2.402 1.511 3.161 0.078 0.414-0.186 0.518-0.327 0.876-0.397 1.003 1.108 1.555 1.276 2.446 0.1 0.533-0.781 0.314-0.939 0.773l-0-0zM13.224 9.38l0 0c0.13-0.389 0.857-0.204 0.774-0.656-0.138-0.756-1.379-1.225-1.052-2.075 0.116-0.304 0.334-0.392 0.27-0.743-0.119-0.644-0.673-1.977-1.246-2.682-0.711-0.876-1.982-1.944-4.29-1.944-0.555 0-1.169 0.062-1.85 0.203-2.297 0.475-3.715 2.211-3.712 3.978 0.003 2.523 0.864 3.452 1.353 4.367 0.338 0.632 1.359 1.437 0.932 3.044l5.716 1.385c0.001-0.389 0.121-1.080 0.539-1.263 0.157-0.069 0.34-0.086 0.536-0.086 0.178 0 0.367 0.013 0.559 0.013 0.213 0 0.429-0.017 0.639-0.087 0.49-0.163 0.594-0.387 0.565-0.842-0.017-0.271-0.23-0.545-0.165-0.83 0.065-0.29 0.329-0.153 0.388-0.426 0.047-0.22-0.203-0.309-0.153-0.445 0.046-0.126 0.244-0.093 0.292-0.178 0.157-0.278-0.216-0.372-0.095-0.733z"></path>
<path fill="#fff" d="M6.37 8.583c0.293-0.059 0.561-0.179 0.787-0.343l0.362 0.316c0.247-0.188 0.452-0.42 0.601-0.682l-0.425-0.243c0.124-0.232 0.194-0.492 0.194-0.767 0-0.001-0.001-0.002-0.001-0.004l0.502-0.059c-0.009-0.302-0.084-0.59-0.215-0.85l-0.479 0.15c-0.128-0.241-0.315-0.452-0.544-0.617l0.264-0.394c-0.255-0.175-0.549-0.305-0.868-0.379l-0.173 0.434c-0.14-0.029-0.286-0.045-0.436-0.045s-0.295 0.016-0.435 0.045l-0.172-0.435c-0.32 0.074-0.614 0.204-0.869 0.378l0.264 0.394c-0.229 0.165-0.417 0.375-0.545 0.616l-0.479-0.15c-0.13 0.261-0.206 0.548-0.215 0.85l0.501 0.060v0.005c0 0.274 0.070 0.534 0.193 0.766l-0.425 0.243c0.149 0.262 0.354 0.494 0.6 0.683l0.362-0.316c0.227 0.165 0.495 0.284 0.789 0.344l-0.051 0.452c0.156 0.028 0.317 0.043 0.482 0.043s0.326-0.015 0.482-0.043l-0.053-0.453zM4.934 6.863c0-0.502 0.449-0.909 1.005-0.909 0.554 0 1.005 0.407 1.005 0.909s-0.45 0.909-1.005 0.909c-0.555 0-1.005-0.407-1.005-0.909v0z"></path>
<path fill="#fff" d="M9.317 9.774l0.418-0.128c-0.016-0.167-0.063-0.33-0.136-0.482l-0.434 0.068c-0.112-0.189-0.282-0.35-0.495-0.46l0.086-0.391c-0.083-0.035-0.168-0.064-0.258-0.087s-0.18-0.039-0.271-0.048l-0.153 0.374c-0.245-0.007-0.482 0.050-0.688 0.158l-0.331-0.263c-0.15 0.094-0.283 0.211-0.394 0.346l0.281 0.307c-0.062 0.090-0.111 0.189-0.144 0.296s-0.049 0.215-0.048 0.321l-0.418 0.128c0.016 0.168 0.063 0.33 0.135 0.481l0.435-0.067c0.112 0.189 0.281 0.35 0.495 0.46l-0.086 0.391c0.082 0.035 0.168 0.064 0.259 0.087s0.18 0.039 0.27 0.048l0.153-0.374c0.245 0.008 0.483-0.049 0.688-0.157l0.332 0.263c0.15-0.094 0.283-0.211 0.394-0.346l-0.282-0.307c0.062-0.090 0.111-0.189 0.145-0.297 0.031-0.106 0.047-0.214 0.046-0.32l-0-0zM8.668 9.941c-0.099 0.317-0.463 0.501-0.814 0.412s-0.554-0.419-0.455-0.736c0.099-0.317 0.463-0.502 0.814-0.412 0.35 0.090 0.554 0.419 0.455 0.736v0z"></path>
<path fill="#fff" d="M9.732 3.799c-0.075-0.204-0.211-0.389-0.4-0.53l0.159-0.372c-0.075-0.047-0.154-0.089-0.239-0.126s-0.171-0.066-0.257-0.089l-0.222 0.345c-0.24-0.045-0.485-0.026-0.708 0.048l-0.276-0.311c-0.166 0.070-0.32 0.164-0.454 0.28l0.219 0.346c-0.078 0.079-0.146 0.169-0.199 0.27s-0.089 0.204-0.108 0.309l-0.436 0.061c-0.017 0.168-0.002 0.335 0.041 0.496l0.441 0.002c0.075 0.204 0.211 0.389 0.4 0.53l-0.159 0.372c0.074 0.047 0.154 0.089 0.238 0.126s0.17 0.067 0.257 0.089l0.222-0.345c0.24 0.046 0.485 0.026 0.708-0.048l0.276 0.311c0.166-0.070 0.32-0.164 0.454-0.28l-0.219-0.346c0.078-0.079 0.145-0.169 0.199-0.269s0.089-0.204 0.108-0.309l0.436-0.061c0.016-0.168 0.002-0.335-0.041-0.496l-0.441-0.002zM9.107 4.421c-0.158 0.297-0.551 0.422-0.881 0.279-0.328-0.143-0.466-0.499-0.308-0.796s0.552-0.422 0.881-0.279c0.328 0.143 0.467 0.499 0.308 0.796z"></path>
</svg>
<svg id="studio-icon-symbol14" width="16" height="16" viewBox="0 0 16 16" x="64" y="32">
<path fill="none" stroke="#fff" stroke-width="1.333" stroke-miterlimit="4" stroke-linecap="butt" stroke-linejoin="miter" d="M9.039 9.155h5.839"></path>
<path fill="none" stroke="#fff" stroke-width="1.333" stroke-miterlimit="4" stroke-linecap="butt" stroke-linejoin="miter" d="M1.011 3.93h3.649l4.379 5.225h-8.758"></path>
<path fill="none" stroke="#fff" stroke-width="1.333" stroke-miterlimit="4" stroke-linecap="square" stroke-linejoin="miter" d="M11.958 6.169l2.919 2.986-2.919 2.986"></path>
</svg>
<svg id="studio-icon-symbol105" width="16" height="16" viewBox="0 0 16 16" x="128" y="32">
<path fill="none" stroke="#fff" stroke-width="1.333" stroke-miterlimit="4" stroke-linecap="butt" stroke-linejoin="miter" d="M8.366 10.1l0.411 0.49c0.549 0.56 1.234 0.91 2.057 0.91h3.566"></path>
<path fill="none" stroke="#fff" stroke-width="1.333" stroke-miterlimit="4" stroke-linecap="butt" stroke-linejoin="miter" d="M0 4.5h2.194c0.754 0 1.509 0.35 2.057 0.91l0.411 0.49"></path>
<path fill="none" stroke="#fff" stroke-width="1.333" stroke-miterlimit="4" stroke-linecap="butt" stroke-linejoin="miter" d="M0 11.5h2.194c0.754 0 1.509-0.35 2.057-0.91l4.526-5.18c0.549-0.56 1.234-0.91 2.057-0.91h3.566"></path>
<path fill="none" stroke="#fff" stroke-width="1.333" stroke-miterlimit="4" stroke-linecap="butt" stroke-linejoin="miter" d="M12.343 9.4l2.057 2.1-2.057 2.1"></path>
<path fill="none" stroke="#fff" stroke-width="1.333" stroke-miterlimit="4" stroke-linecap="butt" stroke-linejoin="miter" d="M12.343 6.6l2.057-2.1-2.057-2.1"></path>
</svg>
<svg id="studio-icon-symbol9" width="16" height="16" viewBox="0 0 16 16" x="160" y="32">
<path fill="#fff" d="M11.4 10.5l-2.4-2v-2.7c1.2-0.4 2-1.5 2-2.8 0-1.7-1.3-3-3-3s-3 1.3-3 3c0 1.3 0.8 2.4 2 2.8v2.7l-2.4 1.9c-0.5-0.2-1-0.4-1.6-0.4-1.7 0-3 1.3-3 3s1.3 3 3 3c1.7 0 3-1.3 3-3 0-0.3-0.1-0.7-0.2-1l2.2-1.7 2.2 1.7c-0.1 0.3-0.2 0.6-0.2 1 0 1.7 1.3 3 3 3s3-1.3 3-3c0-1.7-1.3-3-3-3-0.6 0-1.1 0.2-1.6 0.5v0zM2 13c0-0.6 0.4-1 1-1s1 0.4 1 1c0 0.6-0.4 1-1 1s-1-0.4-1-1v0zM7 3c0-0.6 0.4-1 1-1s1 0.4 1 1c0 0.6-0.4 1-1 1s-1-0.4-1-1v0zM12 13c0-0.6 0.4-1 1-1s1 0.4 1 1c0 0.6-0.4 1-1 1s-1-0.4-1-1v0z"></path>
</svg>
</svg>
